<svg width="329" height="299" viewBox="0 0 329 299" fill="none" xmlns="http://www.w3.org/2000/svg">
<path fill-rule="evenodd" clip-rule="evenodd" d="M91.0163 150.141L91.0787 150.079C91.632 149.525 91.9142 148.942 92 148.244V114.788C82.9859 123.59 71.5256 128 57.8 128C41.3854 128 27.5824 122.067 16.6016 110.241L16.5951 110.234L16.5885 110.227C5.7905 98.4475 0.399994 84.1807 0.399994 67.6C0.399994 50.2208 6.05682 35.3468 17.3984 23.1621C28.7784 10.8018 43.1165 4.59999 60.2 4.59999C70.2249 4.59999 79.1424 6.6917 86.8569 10.9775C94.9115 15.4523 99.2 22.203 99.2 31C99.2 35.9509 97.6287 40.2882 94.4198 43.818L94.3964 43.8438L94.3724 43.8689C91.1179 47.2862 86.9892 49 82.2 49C78.3225 49 74.7628 47.7721 71.6 45.4L69.0884 43.5163L78.4647 32.1309L80.7437 33.7588C81.1438 34.0445 81.5945 34.2 82.2 34.2C83.0592 34.2 83.4556 33.9521 83.7423 33.6245L83.75 33.6157L83.7578 33.6069C84.2957 33.0017 84.6 32.262 84.6 31.2C84.6 29.3427 84.0878 27.8437 83.1157 26.5707C82.114 25.2589 80.4908 24.0171 78.0182 22.9574L77.9907 22.9456L77.9635 22.9333C72.7916 20.5936 67.0192 19.4 60.6 19.4C47.4102 19.4 36.6205 24.0695 28.0078 33.4312L28.001 33.4385L27.9941 33.4459C19.3439 42.723 15 54.0447 15 67.6C15 80.4857 19.1421 91.2769 27.3973 100.157C35.6161 108.999 45.8135 113.4 58.2 113.4C67.8404 113.4 75.7996 110.158 82.2787 103.679C88.992 96.9654 92 90.4839 92 84.2V68.6H107V148.4C107 152.149 106.114 155.537 104.196 158.414C102.287 161.278 99.4955 163.425 96.0256 164.938C93.8884 165.919 91.6011 166.4 89.2 166.4C82.9766 166.4 77.9822 163.682 74.5038 158.464L72.8597 155.998L85.2766 147.502L87 149.8C87.6805 150.707 88.3534 151 89.2 151C89.9397 151 90.4581 150.769 90.9578 150.207L91.0163 150.141ZM94.8 162.2C100.933 159.533 104 154.933 104 148.4V71.6H95V84.2C95 91.5333 91.4667 98.7333 84.4 105.8C77.3333 112.867 68.6 116.4 58.2 116.4C45 116.4 34 111.667 25.2 102.2C16.4 92.7333 12 81.2 12 67.6C12 53.3333 16.6 41.2667 25.8 31.4C35 21.4 46.6 16.4 60.6 16.4C67.4 16.4 73.6 17.6667 79.2 20.2C84.8 22.6 87.6 26.2667 87.6 31.2C87.6 32.9333 87.0667 34.4 86 35.6C85.0667 36.6667 83.8 37.2 82.2 37.2C81 37.2 79.9333 36.8667 79 36.2L73.4 43C74.2345 43.6259 75.0952 44.1539 75.982 44.5839C77.9288 45.528 80.0014 46 82.2 46C86.2 46 89.5333 44.6 92.2 41.8C94.8667 38.8667 96.2 35.2667 96.2 31C96.2 23.4 92.6 17.6 85.4 13.6C78.2 9.59999 69.8 7.59999 60.2 7.59999C43.9333 7.59999 30.4 13.4667 19.6 25.2C8.79999 36.8 3.39999 50.9333 3.39999 67.6C3.39999 83.4667 8.53333 97 18.8 108.2C29.2 119.4 42.2 125 57.8 125C71.8632 125 83.2632 120.153 92 110.459C93.0376 109.308 94.0376 108.088 95 106.8V148.4C94.8667 149.867 94.2667 151.133 93.2 152.2C92.1333 153.4 90.8 154 89.2 154C87.3333 154 85.8 153.2 84.6 151.6L77 156.8C77.0858 156.929 77.1726 157.056 77.2603 157.181C77.766 157.9 78.3038 158.558 78.8738 159.153C81.5866 161.984 85.0286 163.4 89.2 163.4C91.2 163.4 93.0667 163 94.8 162.2ZM115.745 6.73445L115.801 6.67866C117.69 4.78914 120.051 3.79998 122.722 3.79998C125.369 3.79998 127.711 4.77149 129.592 6.62807C131.608 8.48333 132.722 10.8546 132.722 13.6C132.722 16.2822 131.554 18.6105 129.643 20.5213L127.522 18.4C128.989 16.9333 129.722 15.3333 129.722 13.6C129.722 11.7333 128.989 10.1333 127.522 8.79998C126.189 7.46665 124.589 6.79998 122.722 6.79998C120.855 6.79998 119.255 7.46665 117.922 8.79998C116.722 10.1333 116.122 11.7333 116.122 13.6C116.122 15.4667 116.789 17.0667 118.122 18.4C119.455 19.7333 120.989 20.4 122.722 20.4C124.589 20.4 126.189 19.7333 127.522 18.4L129.643 20.5213C127.754 22.4108 125.393 23.4 122.722 23.4C120.119 23.4 117.842 22.3628 116.001 20.5213C114.111 18.6318 113.122 16.2713 113.122 13.6C113.122 11.0252 113.975 8.70138 115.692 6.79309L115.745 6.73445ZM115.722 37H130.522V107.2C130.522 107.818 130.709 108.418 131.249 109.073C131.904 109.613 132.504 109.8 133.122 109.8C133.969 109.8 134.641 109.507 135.322 108.6L137.003 106.358L149.395 114.396L147.558 116.951C143.971 121.942 139.092 124.6 133.122 124.6C128.335 124.6 124.17 122.89 120.801 119.521C117.432 116.152 115.722 111.987 115.722 107.2V37ZM129.122 111.2C128.055 110 127.522 108.667 127.522 107.2V40H118.722V107.2C118.722 111.2 120.122 114.6 122.922 117.4C125.722 120.2 129.122 121.6 133.122 121.6C137.067 121.6 140.415 120.236 143.166 117.507C143.856 116.824 144.508 116.055 145.122 115.2L137.722 110.4C136.522 112 134.989 112.8 133.122 112.8C131.655 112.8 130.322 112.267 129.122 111.2ZM183.775 114.124L182.121 116.646C178.754 121.777 173.8 124.4 167.613 124.4C162.664 124.4 158.396 122.826 155.091 119.521L155.065 119.495L155.04 119.469C151.803 116.07 150.212 111.845 150.212 107V0.799988H165.012V107C165.012 107.53 165.19 108.111 165.872 108.816C166.608 109.45 167.171 109.6 167.613 109.6C168.459 109.6 169.132 109.307 169.812 108.4L171.494 106.158L183.775 114.124ZM163.812 111C162.613 109.8 162.012 108.467 162.012 107V3.79999H153.212V107C153.212 111.133 154.546 114.6 157.212 117.4C159.879 120.067 163.346 121.4 167.613 121.4C171.745 121.4 175.119 120.053 177.736 117.359C178.412 116.662 179.038 115.876 179.613 115L172.213 110.2C171.012 111.8 169.479 112.6 167.613 112.6C166.279 112.6 165.012 112.067 163.812 111ZM185.237 6.73445L185.293 6.67866C187.182 4.78914 189.543 3.79998 192.214 3.79998C194.861 3.79998 197.204 4.77149 199.084 6.62807C201.1 8.48333 202.214 10.8546 202.214 13.6C202.214 16.2822 201.046 18.6105 199.135 20.5213L197.014 18.4C198.481 16.9333 199.214 15.3333 199.214 13.6C199.214 11.7333 198.481 10.1333 197.014 8.79998C195.681 7.46665 194.081 6.79998 192.214 6.79998C190.347 6.79998 188.747 7.46665 187.414 8.79998C186.214 10.1333 185.614 11.7333 185.614 13.6C185.614 15.4667 186.281 17.0667 187.614 18.4C188.947 19.7333 190.481 20.4 192.214 20.4C194.081 20.4 195.681 19.7333 197.014 18.4L199.135 20.5213C197.246 22.4108 194.885 23.4 192.214 23.4C189.611 23.4 187.334 22.3628 185.493 20.5213C183.603 18.6318 182.614 16.2713 182.614 13.6C182.614 11.0252 183.467 8.70138 185.184 6.79309L185.237 6.73445ZM185.214 37H200.014V107.2C200.014 107.818 200.201 108.418 200.741 109.073C201.396 109.613 201.996 109.8 202.614 109.8C203.461 109.8 204.134 109.507 204.814 108.6L206.496 106.358L218.887 114.396L217.05 116.951C213.463 121.942 208.585 124.6 202.614 124.6C197.827 124.6 193.662 122.89 190.293 119.521C186.924 116.152 185.214 111.987 185.214 107.2V37ZM198.614 111.2C197.547 110 197.014 108.667 197.014 107.2V40H188.214V107.2C188.214 111.2 189.614 114.6 192.414 117.4C195.214 120.2 198.614 121.6 202.614 121.6C206.559 121.6 209.907 120.236 212.659 117.507C213.348 116.824 214 116.055 214.614 115.2L207.214 110.4C206.014 112 204.481 112.8 202.614 112.8C201.147 112.8 199.814 112.267 198.614 111.2ZM151.448 238.972L151.442 238.963C146.316 230.561 143.803 220.804 143.803 209.8C143.803 197.416 147.555 187.041 155.224 178.938L155.225 178.937C163.049 170.678 173.2 166.6 185.403 166.6C188.508 166.6 195.222 167.148 205.358 168.2H216.603V269C216.603 277.917 214.26 285.313 209.23 290.81C204.26 296.391 197.224 299 188.603 299C181.092 299 174.84 296.173 170.115 290.541C165.459 285.125 163.203 278.406 163.203 270.6C163.203 264.045 164.857 258.3 168.233 253.496C161.342 250.77 155.74 245.886 151.454 238.982L151.448 238.972ZM170.193 251.03C171.232 251.406 172.302 251.729 173.403 252C172.604 252.799 171.871 253.638 171.205 254.515C167.87 258.904 166.203 264.266 166.203 270.6C166.203 277.8 168.27 283.8 172.403 288.6C176.536 293.533 181.936 296 188.603 296C196.603 296 202.736 293.6 207.003 288.8C211.403 284 213.603 277.4 213.603 269V171.2H205.203C194.936 170.133 188.336 169.6 185.403 169.6C173.936 169.6 164.603 173.4 157.403 181C150.336 188.467 146.803 198.067 146.803 209.8C146.803 220.333 149.203 229.533 154.003 237.4C158.154 244.087 163.55 248.63 170.193 251.03ZM195.041 234.93L195.055 234.918C200.121 230.594 202.203 226.423 202.203 222.4V181.814C193.564 181.266 188.268 181 186.203 181C177.428 181 170.74 183.75 165.796 189.047L165.785 189.059L165.773 189.071C160.794 194.287 158.203 201.167 158.203 210C158.203 218.857 160.221 226.347 164.137 232.594C167.844 238.38 173.017 241.2 180.003 241.2C185.149 241.2 190.137 239.222 195.028 234.942L195.041 234.93ZM161.603 234.2C157.336 227.4 155.203 219.333 155.203 210C155.203 200.533 158.003 192.867 163.603 187C169.203 181 176.736 178 186.203 178C188.603 178 194.936 178.333 205.203 179V222.4C205.203 227.6 202.47 232.533 197.003 237.2C191.67 241.867 186.003 244.2 180.003 244.2C172.003 244.2 165.87 240.867 161.603 234.2ZM184.576 258.067L184.57 258.071C182.168 259.299 180.478 260.909 179.364 262.877C178.24 264.865 177.603 267.396 177.603 270.6C177.603 274.811 178.758 278.099 180.908 280.679C182.95 283.13 185.671 284.4 189.403 284.4C193.542 284.4 196.364 283.15 198.31 280.958C200.326 278.686 201.753 275.008 202.203 269.48V246.743C197.233 250.812 191.348 254.582 184.576 258.067ZM202.203 242.81C197.065 247.328 190.732 251.525 183.203 255.4C177.47 258.333 174.603 263.4 174.603 270.6C174.603 275.4 175.936 279.4 178.603 282.6C181.27 285.8 184.87 287.4 189.403 287.4C199.003 287.4 204.27 281.467 205.203 269.6V240C204.253 240.95 203.253 241.887 202.203 242.81ZM225.549 137.734L225.605 137.679C227.495 135.789 229.855 134.8 232.527 134.8C235.174 134.8 237.516 135.771 239.397 137.628C241.412 139.483 242.527 141.855 242.527 144.6C242.527 147.282 241.359 149.611 239.448 151.521C237.558 153.411 235.198 154.4 232.527 154.4C229.924 154.4 227.647 153.363 225.805 151.521C223.916 149.632 222.927 147.271 222.927 144.6C222.927 142.025 223.779 139.701 225.497 137.793L225.549 137.734ZM237.327 139.8C235.993 138.467 234.393 137.8 232.527 137.8C230.66 137.8 229.06 138.467 227.727 139.8C226.527 141.133 225.927 142.733 225.927 144.6C225.927 146.467 226.593 148.067 227.927 149.4C229.26 150.733 230.793 151.4 232.527 151.4C234.393 151.4 235.993 150.733 237.327 149.4C238.793 147.933 239.527 146.333 239.527 144.6C239.527 142.733 238.793 141.133 237.327 139.8ZM225.527 168H240.327V238.2C240.327 238.818 240.514 239.418 241.054 240.073C241.708 240.613 242.309 240.8 242.927 240.8C243.773 240.8 244.446 240.507 245.127 239.6L246.808 237.358L259.199 245.396L257.363 247.951C253.775 252.942 248.897 255.6 242.927 255.6C238.14 255.6 233.974 253.89 230.605 250.521C227.236 247.152 225.527 242.987 225.527 238.2V168ZM238.927 242.2C237.86 241 237.327 239.667 237.327 238.2V171H228.527V238.2C228.527 242.2 229.927 245.6 232.727 248.4C235.527 251.2 238.927 252.6 242.927 252.6C246.872 252.6 250.22 251.236 252.971 248.507C253.66 247.824 254.312 247.055 254.927 246.2L247.527 241.4C246.327 243 244.793 243.8 242.927 243.8C241.46 243.8 240.127 243.267 238.927 242.2ZM293.58 245.124L291.925 247.646C288.558 252.777 283.605 255.4 277.417 255.4C272.469 255.4 268.201 253.826 264.896 250.521L264.87 250.495L264.845 250.469C261.608 247.07 260.017 242.845 260.017 238V131.8H274.817V238C274.817 238.53 274.995 239.111 275.677 239.816C276.413 240.45 276.975 240.6 277.417 240.6C278.264 240.6 278.937 240.307 279.617 239.4L281.299 237.158L293.58 245.124ZM273.617 242C272.417 240.8 271.817 239.467 271.817 238V134.8H263.017V238C263.017 242.133 264.351 245.6 267.017 248.4C269.684 251.067 273.151 252.4 277.417 252.4C281.549 252.4 284.924 251.053 287.54 248.359C288.217 247.662 288.842 246.876 289.417 246L282.017 241.2C280.817 242.8 279.284 243.6 277.417 243.6C276.084 243.6 274.817 243.067 273.617 242ZM295.042 137.734L295.097 137.679C296.987 135.789 299.347 134.8 302.019 134.8C304.666 134.8 307.008 135.772 308.889 137.628C310.905 139.484 312.019 141.855 312.019 144.6C312.019 147.282 310.851 149.611 308.94 151.521C307.051 153.411 304.69 154.4 302.019 154.4C299.416 154.4 297.139 153.363 295.297 151.521C293.408 149.632 292.419 147.271 292.419 144.6C292.419 142.025 293.271 139.701 294.989 137.793L295.042 137.734ZM306.819 139.8C305.485 138.467 303.885 137.8 302.019 137.8C300.152 137.8 298.552 138.467 297.219 139.8C296.019 141.133 295.419 142.733 295.419 144.6C295.419 146.467 296.085 148.067 297.419 149.4C298.752 150.733 300.285 151.4 302.019 151.4C303.885 151.4 305.485 150.733 306.819 149.4C308.285 147.933 309.019 146.333 309.019 144.6C309.019 142.733 308.285 141.133 306.819 139.8ZM295.019 168H309.819V238.2C309.819 238.818 310.006 239.418 310.546 240.073C311.2 240.613 311.801 240.8 312.419 240.8C313.265 240.8 313.938 240.507 314.619 239.6L316.3 237.358L328.691 245.396L326.855 247.951C323.268 252.942 318.389 255.6 312.419 255.6C307.632 255.6 303.466 253.89 300.097 250.521C296.728 247.152 295.019 242.987 295.019 238.2V168ZM308.419 242.2C307.352 241 306.819 239.667 306.819 238.2V171H298.019V238.2C298.019 242.2 299.419 245.6 302.219 248.4C305.019 251.2 308.419 252.6 312.419 252.6C316.364 252.6 319.712 251.236 322.463 248.507C323.153 247.824 323.804 247.055 324.419 246.2L317.019 241.4C315.819 243 314.285 243.8 312.419 243.8C310.952 243.8 309.619 243.267 308.419 242.2Z" fill="white"/>
</svg>
